<?xml version="1.0" standalone="no"?>
<!DOCTYPE svg PUBLIC "-//W3C//DTD SVG 20010904//EN"
 "http://www.w3.org/TR/2001/REC-SVG-20010904/DTD/svg10.dtd">
<svg version="1.0" xmlns="http://www.w3.org/2000/svg"
 width="299.000000pt" height="97.000000pt" viewBox="0 0 299.000000 97.000000"
 preserveAspectRatio="xMidYMid meet">
<metadata>
Created by potrace 1.16, written by Peter Selinger 2001-2019
</metadata>
<g transform="translate(0.000000,97.000000) scale(0.100000,-0.100000)"
fill="#000000" stroke="none">
<path d="M1230 884 c-80 -8 -210 -23 -290 -35 -203 -29 -196 -24 -293 -239
-43 -95 -75 -175 -73 -178 3 -2 25 -1 49 2 l44 7 6 50 c22 184 218 310 567
365 217 34 663 28 908 -12 117 -20 131 -12 20 9 -235 46 -637 59 -938 31z"/>
<path d="M1355 820 c-28 -4 59 -8 198 -8 371 -3 610 -32 742 -92 76 -34 145
-107 145 -155 0 -77 -78 -95 -427 -95 -254 0 -263 1 -263 19 0 11 -5 23 -10
26 -13 8 -42 -14 -34 -26 3 -5 -16 -9 -42 -9 -43 0 -46 2 -40 23 3 12 6 25 6
29 0 4 13 5 29 2 22 -5 34 -1 47 14 17 21 18 21 42 1 33 -25 65 -24 96 4 22
20 25 31 28 112 l3 90 -25 0 c-24 0 -25 -2 -25 -77 0 -42 -3 -79 -7 -83 -13
-14 -58 5 -58 24 0 10 -7 24 -15 31 -22 18 -48 -6 -40 -37 5 -22 3 -24 -27
-21 -24 2 -36 10 -46 31 -7 15 -20 27 -28 27 -21 0 -29 -29 -16 -51 26 -42 9
-99 -30 -99 -10 0 -18 -4 -18 -8 0 -5 -93 -12 -208 -16 -343 -11 -614 -59
-830 -147 -97 -40 -225 -110 -238 -131 -4 -7 6 -3 22 9 33 23 119 67 150 77
19 6 21 3 16 -19 -6 -31 11 -52 49 -60 42 -9 87 3 104 29 16 25 9 66 -11 66
-17 0 -18 -22 -2 -38 17 -17 5 -24 -49 -29 -56 -5 -83 8 -65 29 9 11 9 17 0
26 -13 13 -13 13 52 16 20 1 34 6 33 13 -1 6 15 15 37 21 38 9 39 9 45 -19 4
-16 5 -48 3 -71 -2 -33 1 -43 12 -43 11 0 15 13 16 55 1 103 -5 95 87 113 120
24 288 45 487 61 292 25 1125 19 1293 -9 25 -4 28 -2 22 18 -30 101 -167 313
-209 322 -76 15 -234 37 -370 50 -161 15 -534 18 -631 5z"/>
<path d="M1378 715 c-32 -30 -58 -58 -58 -62 0 -5 15 -13 33 -18 38 -12 38
-27 -1 -38 -32 -9 -102 1 -102 14 0 5 5 9 10 9 13 0 13 47 0 55 -38 23 -56
-79 -21 -114 37 -37 116 -39 169 -5 30 20 31 77 0 98 -25 18 -25 17 21 41 45
23 53 10 49 -85 -3 -74 -3 -75 22 -75 l25 0 0 110 0 110 -30 1 c-17 1 -37 4
-45 8 -9 3 -36 -15 -72 -49z"/>
<path d="M388 553 c-38 -3 -52 -10 -73 -34 -26 -32 -33 -73 -14 -85 7 -4 44
-10 84 -14 40 -4 86 -14 103 -23 26 -12 33 -13 42 -2 9 10 2 15 -29 20 -21 3
-47 15 -57 26 -10 11 -30 19 -49 19 -17 0 -40 6 -51 14 -18 14 -18 16 -3 32
10 9 37 18 61 21 40 5 47 2 66 -22 12 -15 22 -37 23 -49 0 -21 1 -21 9 -1 5
11 9 36 9 56 1 39 -12 51 -52 47 -12 -1 -43 -3 -69 -5z"/>
<path d="M2637 543 c-10 -9 -8 -75 2 -91 6 -10 10 -5 14 17 4 17 18 38 33 47
24 16 30 16 68 3 30 -10 41 -20 41 -34 0 -16 -9 -21 -43 -26 -24 -3 -47 -10
-50 -16 -12 -18 -50 -33 -83 -33 -30 0 -32 -2 -18 -15 14 -14 19 -14 53 0 20
9 69 19 108 23 87 9 102 24 74 76 -10 18 -29 39 -42 45 -27 12 -146 15 -157 4z"/>
<path d="M1385 404 c-196 -20 -531 -76 -545 -91 -3 -3 11 -3 30 0 146 24 262
39 267 33 3 -3 8 -29 11 -57 l5 -51 -29 4 c-23 2 -30 9 -34 33 -7 38 -25 34
-24 -5 1 -20 -3 -30 -12 -30 -8 0 -14 10 -14 25 0 16 -6 25 -15 25 -9 0 -15
-10 -15 -26 0 -19 -4 -25 -17 -22 -10 2 -18 12 -18 23 0 11 -7 20 -15 20 -9 0
-15 -9 -14 -22 0 -19 -5 -23 -28 -23 -21 0 -28 5 -28 20 0 11 -7 20 -15 20 -9
0 -15 -9 -15 -21 0 -15 -5 -20 -22 -17 -27 3 -38 46 -16 59 9 6 10 9 1 9 -7 0
-12 10 -10 23 1 14 -3 22 -13 22 -10 0 -14 -8 -12 -27 2 -18 -3 -28 -15 -31
-16 -4 -16 -5 -1 -6 12 -1 18 -12 20 -37 4 -45 29 -65 58 -47 14 10 26 10 44
2 16 -8 30 -8 42 -1 12 7 23 6 36 -1 13 -9 20 -9 29 0 9 9 16 9 31 0 16 -10
22 -9 31 4 11 15 15 15 32 3 26 -19 41 -18 66 7 15 15 19 28 15 45 -9 36 4 94
20 94 14 0 20 -46 15 -122 -2 -29 1 -38 13 -38 13 0 16 14 16 79 l0 80 43 6
c87 11 381 25 386 18 9 -12 41 -12 41 0 0 7 90 8 283 5 165 -3 249 -2 202 3
-89 8 -748 19 -810 13z"/>
<path d="M2330 371 c25 -4 -8 -10 -110 -20 -141 -13 -276 -32 -332 -46 -26 -7
-28 -5 -28 24 0 21 -5 31 -15 31 -14 0 -21 -45 -17 -102 3 -28 -37 -22 -48 7
-12 33 -30 32 -30 -1 0 -21 -4 -25 -22 -22 -20 3 -23 8 -21 46 2 36 -1 42 -18
42 -18 0 -19 -5 -13 -52 4 -29 11 -59 17 -65 11 -15 39 -17 53 -3 6 6 21 6 41
-2 28 -10 35 -9 52 6 20 18 22 18 84 -7 103 -41 179 -57 275 -57 114 0 194 17
385 81 187 63 241 68 287 24 17 -16 40 -55 52 -87 11 -32 22 -58 25 -58 6 0
-9 53 -28 98 -21 48 -105 152 -124 152 -6 0 -55 -22 -109 -49 -115 -59 -194
-78 -371 -90 -115 -8 -139 -7 -210 11 -79 20 -105 32 -105 49 0 23 127 49 340
70 115 12 128 15 90 21 -25 3 -65 6 -90 6 -43 -1 -44 -1 -10 -7z"/>
<path d="M1517 303 c-16 -15 -7 -34 13 -28 11 3 30 3 42 -1 l21 -6 -24 -14
c-13 -7 -41 -13 -62 -14 -31 0 -40 4 -44 20 -3 11 -12 20 -20 20 -10 0 -14 -7
-10 -20 4 -16 0 -20 -19 -20 -13 0 -28 9 -34 20 -19 36 -32 23 -25 -25 7 -42
5 -45 -19 -55 -26 -10 -33 -24 -17 -34 17 -11 39 5 50 35 7 19 15 27 25 23 8
-3 24 0 36 6 16 9 25 9 33 1 6 -6 18 -11 27 -11 25 -1 149 64 150 79 0 7 -6
11 -15 7 -8 -3 -30 1 -49 9 -39 17 -50 18 -59 8z"/>
</g>
</svg>
